<svg fill="#ffffff" xmlns="http://www.w3.org/2000/svg"  viewBox="0 0 64 64" width="512px" height="512px"><path d="M31,2C15.009,2,2,15.009,2,31s13.009,29,29,29s29-13.009,29-29S46.991,2,31,2z M31,58C16.112,58,4,45.888,4,31S16.112,4,31,4s27,12.112,27,27S45.888,58,31,58z"/><path d="M31 18c.552 0 1-.448 1-1v-2c0-.552-.448-1-1-1s-1 .448-1 1v2C30 17.552 30.448 18 31 18zM15 30c-.552 0-1 .448-1 1s.448 1 1 1h2c.552 0 1-.448 1-1s-.448-1-1-1H15zM48 31c0-.552-.448-1-1-1h-2c-.552 0-1 .448-1 1s.448 1 1 1h2C47.552 32 48 31.552 48 31zM30 45v2c0 .552.448 1 1 1s1-.448 1-1v-2c0-.552-.448-1-1-1S30 44.448 30 45zM35.87 18.947c.123.049.25.073.374.073.396 0 .771-.237.928-.626l.749-1.854c.207-.512-.041-1.095-.553-1.302-.512-.206-1.095.041-1.302.553l-.749 1.854C35.11 18.157 35.358 18.74 35.87 18.947zM45.46 37.921c.123.049.25.073.374.073.396 0 .771-.237.928-.626.207-.512-.041-1.095-.553-1.302l-1.854-.749c-.512-.206-1.095.042-1.302.553-.207.512.041 1.095.553 1.302L45.46 37.921zM40.006 20.234c-.384.397-.373 1.03.024 1.414.194.188.444.281.695.281.262 0 .523-.102.719-.305l1.39-1.438c.384-.397.373-1.03-.024-1.414-.397-.384-1.03-.374-1.414.024L40.006 20.234zM41.766 40.006c-.398-.384-1.03-.374-1.414.024-.152.157-.224.354-.253.555-.17.369-.11.817.194 1.122l1.313 1.313c.195.195.451.293.707.293s.512-.098.707-.293c.037-.037.054-.085.084-.126.04-.031.088-.047.124-.085.384-.397.373-1.03-.024-1.414L41.766 40.006zM45.21 23.579l-1.827.813c-.504.225-.731.816-.507 1.32.166.373.531.594.914.594.136 0 .274-.028.406-.087l1.827-.813c.504-.225.731-.816.507-1.32C46.305 23.581 45.715 23.355 45.21 23.579zM38.5 39.5c.256 0 .512-.098.707-.293.391-.391.391-1.023 0-1.414l-6.282-6.282C32.969 31.347 33 31.178 33 31c0-.737-.405-1.375-1-1.722V21c0-.552-.448-1-1-1s-1 .448-1 1v8.278c-.595.347-1 .985-1 1.722 0 1.103.897 2 2 2 .178 0 .347-.031.511-.075l6.282 6.282C37.988 39.402 38.244 39.5 38.5 39.5z"/><path d="M45.2,12.906c-0.434-0.341-1.062-0.267-1.404,0.168c-0.341,0.434-0.266,1.062,0.168,1.404C49.071,18.492,52,24.514,52,31c0,11.58-9.42,21-21,21s-21-9.42-21-21s9.42-21,21-21c1.028,0,2.06,0.075,3.065,0.222c0.548,0.081,1.054-0.298,1.134-0.844c0.08-0.547-0.298-1.055-0.844-1.134C33.253,8.082,32.125,8,31,8C18.318,8,8,18.318,8,31s10.318,23,23,23s23-10.318,23-23C54,23.896,50.792,17.301,45.2,12.906z"/><path d="M38.238,11.281c0.783,0.287,1.561,0.627,2.311,1.011c0.146,0.074,0.301,0.109,0.454,0.109c0.364,0,0.715-0.199,0.892-0.545c0.251-0.492,0.056-1.094-0.436-1.346c-0.822-0.42-1.674-0.792-2.533-1.107c-0.517-0.189-1.093,0.077-1.283,0.595C37.454,10.516,37.72,11.09,38.238,11.281z"/></svg>